<?xml version="1.0" standalone="no"?>
<svg viewBox="0 0 200 200" xmlns="http://www.w3.org/2000/svg">
  <path fill="#08152A" d="M35.5,-65.5C44.8,-56.2,50.1,-44.1,58.4,-32.7C66.7,-21.3,78,-10.7,81.5,2C84.9,14.6,80.4,29.2,70.9,38.6C61.5,48,47,52.3,34.4,56.2C21.7,60.2,10.9,63.9,-2.9,68.9C-16.6,73.9,-33.3,80.2,-45.2,75.8C-57.1,71.4,-64.2,56.3,-67,41.9C-69.9,27.4,-68.4,13.7,-68.8,-0.2C-69.2,-14.1,-71.3,-28.3,-67.2,-40.5C-63.1,-52.8,-52.8,-63.2,-40.5,-70.7C-28.3,-78.2,-14.1,-82.8,-0.5,-81.9C13.2,-81.1,26.3,-74.7,35.5,-65.5Z" transform="translate(100 100)" />
</svg>
